<?xml version="1.0" encoding="UTF-8" standalone="no"?>
<!DOCTYPE svg PUBLIC "-//W3C//DTD SVG 1.1//EN" "http://www.w3.org/Graphics/SVG/1.1/DTD/svg11.dtd">
<svg width="100%" height="100%" viewBox="0 0 211 211" version="1.1" xmlns="http://www.w3.org/2000/svg" xmlns:xlink="http://www.w3.org/1999/xlink" xml:space="preserve" xmlns:serif="http://www.serif.com/" style="fill-rule:evenodd;clip-rule:evenodd;stroke-linejoin:round;stroke-miterlimit:2;">
    <g transform="matrix(1,0,0,1,-587.618,-1327.79)">
        <g transform="matrix(1.7046,0,0,2.6393,-708.934,-1392.08)">
            <path d="M838.602,1054.31C841.472,1112.38 755.318,1088.77 811.014,1053.34L809.981,1033.53L838.602,1054.31Z" style="fill:white;"/>
        </g>
        <g transform="matrix(1,0,0,1,0,301.102)">
            <path d="M668.802,1026.69L714.935,1077.87L750.038,1040.6L746.475,1109.4L797.648,1107.88L746.475,1154.01L783.741,1189.11L714.935,1185.55L716.464,1236.72L670.331,1185.55L635.228,1222.82L638.791,1154.01L587.618,1155.54L638.791,1109.4L601.525,1074.3L670.331,1077.87L668.802,1026.69ZM675.031,1041.55L676.595,1078.06L709.059,1079.54L675.031,1041.55ZM703.736,1111.25C672.107,1103.42 657.118,1121.4 646.384,1160.21L650.311,1159.69C657.515,1128.36 672.166,1106.01 699.847,1113.98L703.736,1111.25ZM697.663,1116.64C686.433,1110.43 670.483,1117.73 662.067,1132.94C653.651,1148.15 655.935,1165.55 667.164,1171.76C678.394,1177.97 694.344,1170.67 702.76,1155.46C711.176,1140.25 708.892,1122.86 697.663,1116.64Z" style="fill:url(#_Radial1);"/>
        </g>
        <g transform="matrix(1.91354,0,0,1.91354,-772.142,-302.035)">
            <g transform="matrix(50,0,0,50,769.113,930.544)">
                <path d="M0.063,-0.232L0.204,-0.239C0.206,-0.195 0.213,-0.165 0.227,-0.149C0.248,-0.124 0.288,-0.111 0.346,-0.111C0.394,-0.111 0.429,-0.119 0.45,-0.137C0.472,-0.154 0.482,-0.175 0.482,-0.199C0.482,-0.22 0.474,-0.238 0.456,-0.253C0.444,-0.264 0.41,-0.281 0.354,-0.305C0.299,-0.329 0.258,-0.349 0.233,-0.365C0.207,-0.382 0.187,-0.403 0.172,-0.428C0.158,-0.454 0.15,-0.484 0.15,-0.519C0.15,-0.579 0.172,-0.629 0.216,-0.668C0.259,-0.708 0.323,-0.728 0.405,-0.728C0.489,-0.728 0.554,-0.708 0.6,-0.669C0.646,-0.63 0.672,-0.577 0.676,-0.512L0.535,-0.505C0.532,-0.54 0.519,-0.566 0.498,-0.584C0.477,-0.602 0.446,-0.611 0.404,-0.611C0.364,-0.611 0.335,-0.604 0.317,-0.59C0.3,-0.576 0.291,-0.557 0.291,-0.536C0.291,-0.515 0.299,-0.498 0.315,-0.485C0.331,-0.471 0.366,-0.452 0.421,-0.429C0.503,-0.393 0.556,-0.364 0.578,-0.342C0.612,-0.31 0.628,-0.268 0.628,-0.217C0.628,-0.154 0.603,-0.1 0.553,-0.055C0.503,-0.01 0.434,0.012 0.345,0.012C0.283,0.012 0.23,0.002 0.185,-0.019C0.14,-0.039 0.108,-0.068 0.089,-0.105C0.071,-0.142 0.062,-0.184 0.063,-0.232Z" style="fill:white;fill-rule:nonzero;stroke:black;stroke-width:0.05px;"/>
            </g>
        </g>
    </g>
    <defs>
        <radialGradient id="_Radial1" cx="0" cy="0" r="1" gradientUnits="userSpaceOnUse" gradientTransform="matrix(39.5923,-44.9432,44.9432,39.5923,692.633,1131.71)"><stop offset="0" style="stop-color:rgb(0,59,155);stop-opacity:1"/><stop offset="0.46" style="stop-color:rgb(1,70,183);stop-opacity:1"/><stop offset="1" style="stop-color:rgb(2,99,255);stop-opacity:1"/></radialGradient>
    </defs>
</svg>
