<?xml version="1.0" encoding="UTF-8" standalone="no"?>
<!-- SPDX-FileCopyrightText: 2026 The SonicRed contributors.
     SPDX-License-Identifier: MPL-2.0
-->
<!DOCTYPE svg PUBLIC "-//W3C//DTD SVG 1.1//EN" "http://www.w3.org/Graphics/SVG/1.1/DTD/svg11.dtd"><svg width="100%" height="100%" viewBox="0 0 51 51" version="1.1" xmlns="http://www.w3.org/2000/svg" xmlns:xlink="http://www.w3.org/1999/xlink" xml:space="preserve" xmlns:serif="http://www.serif.com/" style="fill-rule:evenodd;clip-rule:evenodd;stroke-linejoin:round;stroke-miterlimit:2;"><path d="M31.904,15.065c1.174,36.786 -34.072,21.83 -11.287,-0.616l-0.422,-12.548l11.709,13.165Z" style="fill:#fff;"/><path d="M19.484,0l11.072,12.281l8.425,-8.944l-0.855,16.513l12.281,-0.367l-12.281,11.072l8.944,8.425l-16.513,-0.855l0.367,12.281l-11.072,-12.281l-8.425,8.944l0.855,-16.513l-12.281,0.367l12.281,-11.072l-8.944,-8.425l16.513,0.855l-0.367,-12.281Zm1.495,3.565l0.375,8.763l7.791,0.356l-8.167,-9.119Zm6.889,16.729c-7.591,-1.88 -11.188,2.437 -13.765,11.75l0.943,-0.124c1.729,-7.521 5.245,-12.884 11.889,-10.97l0.933,-0.656Zm-1.458,1.294c-2.695,-1.491 -6.523,0.262 -8.543,3.912c-2.02,3.65 -1.472,7.825 1.223,9.316c2.695,1.491 6.523,-0.262 8.543,-3.912c2.02,-3.65 1.472,-7.825 -1.223,-9.316Z" style="fill:url(#_Radial1);"/><path d="M28.33,30.867l3.218,-0.168c0.045,1.024 0.221,1.715 0.527,2.074c0.493,0.583 1.405,0.875 2.736,0.875c1.106,0 1.906,-0.198 2.399,-0.594c0.493,-0.396 0.74,-0.875 0.74,-1.435c0,-0.486 -0.202,-0.897 -0.605,-1.233c-0.284,-0.247 -1.063,-0.647 -2.338,-1.2c-1.274,-0.553 -2.205,-1.015 -2.792,-1.385c-0.587,-0.37 -1.048,-0.85 -1.385,-1.441c-0.336,-0.591 -0.505,-1.282 -0.505,-2.074c0,-1.383 0.501,-2.53 1.502,-3.442c1.002,-0.912 2.452,-1.368 4.35,-1.368c1.928,0 3.422,0.452 4.479,1.357c1.058,0.904 1.639,2.108 1.743,3.61l-3.24,0.146c-0.082,-0.785 -0.366,-1.387 -0.852,-1.805c-0.486,-0.419 -1.203,-0.628 -2.153,-0.628c-0.934,0 -1.601,0.164 -2.001,0.493c-0.4,0.329 -0.6,0.744 -0.6,1.245c0,0.471 0.183,0.86 0.549,1.166c0.366,0.314 1.177,0.744 2.433,1.289c1.891,0.815 3.095,1.476 3.61,1.985c0.77,0.747 1.155,1.708 1.155,2.882c0,1.45 -0.574,2.689 -1.721,3.717c-1.147,1.028 -2.745,1.542 -4.793,1.542c-1.413,0 -2.637,-0.237 -3.672,-0.712c-1.035,-0.475 -1.766,-1.134 -2.192,-1.979c-0.426,-0.845 -0.624,-1.816 -0.594,-2.915Z" style="fill:#fff;fill-rule:nonzero;stroke:#000;stroke-width:1.1px;"/><defs><radialGradient id="_Radial1" cx="0" cy="0" r="1" gradientUnits="userSpaceOnUse" gradientTransform="matrix(9.502159,-10.786374,10.786374,9.502159,25.203522,25.203522)"><stop offset="0" style="stop-color:#9b0027;stop-opacity:1"/><stop offset="0.46" style="stop-color:#b7012e;stop-opacity:1"/><stop offset="1" style="stop-color:#ff0240;stop-opacity:1"/></radialGradient></defs></svg>
