<?xml version="1.0" encoding="UTF-8" standalone="no"?>
<!-- SPDX-FileCopyrightText: 2026 The SonicWeb contributors.
     SPDX-License-Identifier: MPL-2.0
-->
<!DOCTYPE svg PUBLIC "-//W3C//DTD SVG 1.1//EN" "http://www.w3.org/Graphics/SVG/1.1/DTD/svg11.dtd">
<svg width="100%" height="100%" viewBox="0 0 528 211" version="1.1" xmlns="http://www.w3.org/2000/svg" xml:space="preserve" style="fill-rule:evenodd;clip-rule:evenodd;stroke-linejoin:round;stroke-miterlimit:2;">
    <g transform="matrix(1,0,0,1,-587.618,-1026.69)">
        <g transform="matrix(1.7046,0,0,2.6393,-708.934,-1693.18)">
            <path d="M838.602,1054.31C841.472,1112.38 755.318,1088.77 811.014,1053.34L809.981,1033.53L838.602,1054.31Z" style="fill:white;"/>
        </g>
        <path d="M668.802,1026.69L714.935,1077.87L750.038,1040.6L746.475,1109.4L797.648,1107.88L746.475,1154.01L783.741,1189.11L714.935,1185.55L716.464,1236.72L670.331,1185.55L635.228,1222.82L638.791,1154.01L587.618,1155.54L638.791,1109.4L601.525,1074.3L670.331,1077.87L668.802,1026.69ZM675.031,1041.55L676.595,1078.06L709.059,1079.54L675.031,1041.55ZM703.736,1111.25C672.107,1103.42 657.118,1121.4 646.384,1160.21L650.311,1159.69C657.515,1128.36 672.166,1106.01 699.847,1113.98L703.736,1111.25ZM697.663,1116.64C686.433,1110.43 670.483,1117.73 662.067,1132.94C653.651,1148.15 655.935,1165.55 667.164,1171.76C678.394,1177.97 694.344,1170.67 702.76,1155.46C711.176,1140.25 708.892,1122.86 697.663,1116.64Z" style="fill:url(#_Radial1);"/>
        <g transform="matrix(1.91354,0,0,1.91354,-772.142,-603.137)">
            <g transform="matrix(50,0,0,50,769.113,930.544)">
                <path d="M0.063,-0.232L0.204,-0.239C0.206,-0.195 0.213,-0.165 0.227,-0.149C0.248,-0.124 0.288,-0.111 0.346,-0.111C0.394,-0.111 0.429,-0.119 0.45,-0.137C0.472,-0.154 0.482,-0.175 0.482,-0.199C0.482,-0.22 0.474,-0.238 0.456,-0.253C0.444,-0.264 0.41,-0.281 0.354,-0.305C0.299,-0.329 0.258,-0.349 0.233,-0.365C0.207,-0.382 0.187,-0.403 0.172,-0.428C0.158,-0.454 0.15,-0.484 0.15,-0.519C0.15,-0.579 0.172,-0.629 0.216,-0.668C0.259,-0.708 0.323,-0.728 0.405,-0.728C0.489,-0.728 0.554,-0.708 0.6,-0.669C0.646,-0.63 0.672,-0.577 0.676,-0.512L0.535,-0.505C0.532,-0.54 0.519,-0.566 0.498,-0.584C0.477,-0.602 0.446,-0.611 0.404,-0.611C0.364,-0.611 0.335,-0.604 0.317,-0.59C0.3,-0.576 0.291,-0.557 0.291,-0.536C0.291,-0.515 0.299,-0.498 0.315,-0.485C0.331,-0.471 0.366,-0.452 0.421,-0.429C0.503,-0.393 0.556,-0.364 0.578,-0.342C0.612,-0.31 0.628,-0.268 0.628,-0.217C0.628,-0.154 0.603,-0.1 0.553,-0.055C0.503,-0.01 0.434,0.012 0.345,0.012C0.283,0.012 0.23,0.002 0.185,-0.019C0.14,-0.039 0.108,-0.068 0.089,-0.105C0.071,-0.142 0.062,-0.184 0.063,-0.232Z" style="fill:white;fill-rule:nonzero;stroke:black;stroke-width:0.05px;"/>
            </g>
            <g transform="matrix(50,0,0,50,798.962,930.544)">
                <path d="M0.061,-0.215C0.061,-0.311 0.088,-0.388 0.142,-0.445C0.196,-0.502 0.267,-0.531 0.355,-0.531C0.432,-0.531 0.492,-0.51 0.535,-0.468C0.578,-0.425 0.599,-0.369 0.599,-0.297C0.599,-0.213 0.572,-0.141 0.519,-0.08C0.465,-0.018 0.393,0.012 0.303,0.012C0.254,0.012 0.211,0.002 0.173,-0.017C0.135,-0.037 0.107,-0.064 0.088,-0.1C0.07,-0.136 0.061,-0.174 0.061,-0.215ZM0.46,-0.315C0.46,-0.349 0.45,-0.375 0.431,-0.395C0.412,-0.415 0.387,-0.425 0.356,-0.425C0.326,-0.425 0.299,-0.416 0.275,-0.397C0.252,-0.378 0.234,-0.351 0.221,-0.316C0.208,-0.28 0.201,-0.247 0.201,-0.217C0.201,-0.18 0.211,-0.151 0.231,-0.129C0.252,-0.107 0.277,-0.096 0.308,-0.096C0.346,-0.096 0.378,-0.113 0.404,-0.146C0.441,-0.192 0.46,-0.249 0.46,-0.315Z" style="fill:white;fill-rule:nonzero;stroke:black;stroke-width:0.05px;"/>
            </g>
            <g transform="matrix(50,0,0,50,826.004,930.544)">
                <path d="M0.15,-0.519L0.283,-0.519L0.27,-0.451C0.303,-0.48 0.334,-0.5 0.363,-0.512C0.391,-0.525 0.422,-0.531 0.454,-0.531C0.496,-0.531 0.53,-0.519 0.554,-0.494C0.579,-0.47 0.591,-0.437 0.591,-0.397C0.591,-0.379 0.586,-0.344 0.575,-0.293L0.514,-0L0.374,-0L0.436,-0.294C0.445,-0.338 0.449,-0.365 0.449,-0.373C0.449,-0.391 0.444,-0.405 0.433,-0.415C0.423,-0.426 0.408,-0.431 0.389,-0.431C0.369,-0.431 0.346,-0.422 0.321,-0.405C0.296,-0.388 0.276,-0.365 0.262,-0.336C0.251,-0.316 0.24,-0.275 0.227,-0.213L0.182,-0L0.042,-0L0.15,-0.519Z" style="fill:white;fill-rule:nonzero;stroke:black;stroke-width:0.05px;"/>
            </g>
            <g transform="matrix(50,0,0,50,853.046,930.544)">
                <path d="M0.189,-0.716L0.33,-0.716L0.303,-0.589L0.163,-0.589L0.189,-0.716ZM0.148,-0.519L0.289,-0.519L0.18,-0L0.04,-0L0.148,-0.519Z" style="fill:white;fill-rule:nonzero;stroke:black;stroke-width:0.05px;"/>
            </g>
            <g transform="matrix(50,0,0,50,863.438,930.544)">
                <path d="M0.392,-0.195L0.528,-0.173C0.505,-0.113 0.472,-0.067 0.428,-0.035C0.384,-0.004 0.333,0.012 0.275,0.012C0.209,0.012 0.157,-0.007 0.118,-0.047C0.079,-0.086 0.06,-0.14 0.06,-0.209C0.06,-0.266 0.072,-0.319 0.095,-0.369C0.119,-0.419 0.154,-0.459 0.201,-0.488C0.248,-0.516 0.3,-0.531 0.356,-0.531C0.418,-0.531 0.466,-0.515 0.503,-0.483C0.539,-0.451 0.56,-0.409 0.564,-0.357L0.431,-0.343C0.428,-0.372 0.419,-0.393 0.405,-0.407C0.39,-0.42 0.371,-0.427 0.348,-0.427C0.321,-0.427 0.295,-0.417 0.272,-0.397C0.249,-0.377 0.231,-0.347 0.218,-0.306C0.205,-0.266 0.199,-0.229 0.199,-0.193C0.199,-0.163 0.207,-0.139 0.222,-0.123C0.237,-0.106 0.255,-0.098 0.278,-0.098C0.3,-0.098 0.322,-0.106 0.343,-0.122C0.364,-0.138 0.38,-0.163 0.392,-0.195Z" style="fill:white;fill-rule:nonzero;stroke:black;stroke-width:0.05px;"/>
            </g>
            <g transform="matrix(50,0,0,50,887.746,930.544)">
                <path d="M0.722,-0L0.573,-0L0.557,-0.523L0.296,-0L0.144,-0L0.117,-0.716L0.261,-0.716L0.268,-0.215L0.513,-0.716L0.673,-0.716L0.689,-0.22L0.925,-0.716L1.068,-0.716L0.722,-0Z" style="fill:white;fill-rule:nonzero;stroke:black;stroke-width:0.05px;"/>
            </g>
            <g transform="matrix(50,0,0,50,930.535,930.544)">
                <path d="M0.545,-0.216L0.193,-0.216C0.193,-0.21 0.193,-0.206 0.193,-0.203C0.193,-0.169 0.203,-0.141 0.222,-0.12C0.242,-0.098 0.266,-0.088 0.294,-0.088C0.341,-0.088 0.377,-0.112 0.403,-0.16L0.529,-0.139C0.504,-0.089 0.472,-0.051 0.431,-0.026C0.39,-0 0.344,0.012 0.293,0.012C0.224,0.012 0.167,-0.01 0.124,-0.054C0.08,-0.098 0.058,-0.156 0.058,-0.229C0.058,-0.3 0.078,-0.363 0.117,-0.418C0.171,-0.493 0.248,-0.531 0.347,-0.531C0.411,-0.531 0.461,-0.511 0.499,-0.472C0.536,-0.433 0.555,-0.378 0.555,-0.307C0.555,-0.273 0.551,-0.243 0.545,-0.216ZM0.427,-0.301C0.427,-0.307 0.427,-0.312 0.427,-0.315C0.427,-0.354 0.419,-0.383 0.401,-0.402C0.384,-0.421 0.361,-0.431 0.332,-0.431C0.303,-0.431 0.277,-0.42 0.254,-0.398C0.231,-0.376 0.216,-0.344 0.208,-0.301L0.427,-0.301Z" style="fill:white;fill-rule:nonzero;stroke:black;stroke-width:0.05px;"/>
            </g>
            <g transform="matrix(50,0,0,50,954.842,930.544)">
                <path d="M0.036,-0L0.186,-0.716L0.326,-0.716L0.276,-0.477C0.302,-0.496 0.326,-0.51 0.348,-0.518C0.37,-0.527 0.395,-0.531 0.421,-0.531C0.476,-0.531 0.519,-0.512 0.552,-0.476C0.585,-0.439 0.602,-0.386 0.602,-0.316C0.602,-0.269 0.594,-0.223 0.578,-0.178C0.563,-0.134 0.542,-0.098 0.516,-0.07C0.49,-0.042 0.463,-0.022 0.435,-0.008C0.406,0.005 0.376,0.012 0.345,0.012C0.271,0.012 0.216,-0.02 0.182,-0.085L0.164,-0L0.036,-0ZM0.225,-0.211C0.225,-0.177 0.235,-0.148 0.255,-0.126C0.274,-0.105 0.298,-0.094 0.324,-0.094C0.348,-0.094 0.37,-0.102 0.391,-0.119C0.413,-0.136 0.43,-0.163 0.445,-0.2C0.459,-0.237 0.466,-0.275 0.466,-0.313C0.466,-0.349 0.456,-0.378 0.437,-0.399C0.418,-0.42 0.395,-0.431 0.368,-0.431C0.333,-0.431 0.303,-0.414 0.277,-0.382C0.243,-0.337 0.225,-0.28 0.225,-0.211Z" style="fill:white;fill-rule:nonzero;stroke:black;stroke-width:0.05px;"/>
            </g>
        </g>
    </g>
    <defs>
        <radialGradient id="_Radial1" cx="0" cy="0" r="1" gradientUnits="userSpaceOnUse" gradientTransform="matrix(39.5923,-44.9432,44.9432,39.5923,692.633,1131.71)"><stop offset="0" style="stop-color:rgb(0,59,155);stop-opacity:1"/><stop offset="0.46" style="stop-color:rgb(1,70,183);stop-opacity:1"/><stop offset="1" style="stop-color:rgb(2,99,255);stop-opacity:1"/></radialGradient>
    </defs>
</svg>
