<?xml version="1.0" encoding="UTF-8" standalone="no"?>
<!-- SPDX-FileCopyrightText: 2026 The SonicRed contributors.
     SPDX-License-Identifier: MPL-2.0
--> 
<!DOCTYPE svg PUBLIC "-//W3C//DTD SVG 1.1//EN" "http://www.w3.org/Graphics/SVG/1.1/DTD/svg11.dtd"><svg width="100%" height="100%" viewBox="0 0 124 51" version="1.1" xmlns="http://www.w3.org/2000/svg" xmlns:xlink="http://www.w3.org/1999/xlink" xml:space="preserve" xmlns:serif="http://www.serif.com/" style="fill-rule:evenodd;clip-rule:evenodd;stroke-linejoin:round;stroke-miterlimit:2;"><path d="M31.904,15.065c1.174,36.786 -34.072,21.83 -11.287,-0.616l-0.422,-12.548l11.709,13.165Z" style="fill:#fff;"/><path d="M19.484,0l11.072,12.281l8.425,-8.944l-0.855,16.513l12.281,-0.367l-12.281,11.072l8.944,8.425l-16.513,-0.855l0.367,12.281l-11.072,-12.281l-8.425,8.944l0.855,-16.513l-12.281,0.367l12.281,-11.072l-8.944,-8.425l16.513,0.855l-0.367,-12.281Zm1.495,3.565l0.375,8.763l7.791,0.356l-8.167,-9.119Zm6.889,16.729c-7.591,-1.88 -11.188,2.437 -13.765,11.75l0.943,-0.124c1.729,-7.521 5.245,-12.884 11.889,-10.97l0.933,-0.656Zm-1.458,1.294c-2.695,-1.491 -6.523,0.262 -8.543,3.912c-2.02,3.65 -1.472,7.825 1.223,9.316c2.695,1.491 6.523,-0.262 8.543,-3.912c2.02,-3.65 1.472,-7.825 -1.223,-9.316Z" style="fill:url(#_Radial1);"/><g transform="matrix(0.45925,0,0,0.45925,-326.342564,-391.159091)"><g><g transform="matrix(50,0,0,50,769.112833,930.544179)"><path d="M0.063,-0.232l0.14,-0.007c0.002,0.045 0.01,0.075 0.023,0.09c0.021,0.025 0.061,0.038 0.119,0.038c0.048,0 0.083,-0.009 0.104,-0.026c0.021,-0.017 0.032,-0.038 0.032,-0.062c0,-0.021 -0.009,-0.039 -0.026,-0.054c-0.012,-0.011 -0.046,-0.028 -0.102,-0.052c-0.056,-0.024 -0.096,-0.044 -0.122,-0.06c-0.026,-0.016 -0.046,-0.037 -0.06,-0.063c-0.015,-0.026 -0.022,-0.056 -0.022,-0.09c0,-0.06 0.022,-0.11 0.065,-0.15c0.044,-0.04 0.107,-0.06 0.189,-0.06c0.084,0 0.149,0.02 0.195,0.059c0.046,0.039 0.071,0.092 0.076,0.157l-0.141,0.006c-0.004,-0.034 -0.016,-0.06 -0.037,-0.079c-0.021,-0.018 -0.052,-0.027 -0.094,-0.027c-0.041,0 -0.07,0.007 -0.087,0.021c-0.017,0.014 -0.026,0.032 -0.026,0.054c0,0.021 0.008,0.037 0.024,0.051c0.016,0.014 0.051,0.032 0.106,0.056c0.082,0.035 0.135,0.064 0.157,0.086c0.034,0.033 0.05,0.074 0.05,0.125c0,0.063 -0.025,0.117 -0.075,0.162c-0.05,0.045 -0.12,0.067 -0.209,0.067c-0.062,0 -0.115,-0.01 -0.16,-0.031c-0.045,-0.021 -0.077,-0.049 -0.095,-0.086c-0.019,-0.037 -0.027,-0.079 -0.026,-0.127Z" style="fill:#fff;fill-rule:nonzero;stroke:#000;stroke-width:0.05px;"/></g><g transform="matrix(50,0,0,50,798.962443,930.544179)"><path d="M0.061,-0.215c0,-0.096 0.027,-0.173 0.081,-0.23c0.054,-0.057 0.125,-0.086 0.214,-0.086c0.076,0 0.136,0.021 0.179,0.063c0.043,0.042 0.064,0.099 0.064,0.17c0,0.084 -0.027,0.157 -0.081,0.218c-0.054,0.061 -0.126,0.092 -0.216,0.092c-0.049,0 -0.092,-0.01 -0.13,-0.029c-0.038,-0.02 -0.066,-0.047 -0.084,-0.083c-0.019,-0.036 -0.028,-0.074 -0.028,-0.115Zm0.399,-0.1c0,-0.033 -0.01,-0.06 -0.029,-0.08c-0.019,-0.02 -0.044,-0.03 -0.075,-0.03c-0.03,0 -0.057,0.009 -0.081,0.028c-0.023,0.019 -0.042,0.046 -0.055,0.082c-0.013,0.036 -0.02,0.068 -0.02,0.098c0,0.037 0.01,0.067 0.03,0.088c0.02,0.022 0.046,0.033 0.076,0.033c0.038,0 0.071,-0.016 0.097,-0.049c0.037,-0.047 0.056,-0.103 0.056,-0.17Z" style="fill:#fff;fill-rule:nonzero;stroke:#000;stroke-width:0.05px;"/></g><g transform="matrix(50,0,0,50,826.004435,930.544179)"><path d="M0.15,-0.519l0.133,0l-0.014,0.067c0.033,-0.029 0.064,-0.049 0.093,-0.061c0.029,-0.012 0.059,-0.018 0.091,-0.018c0.043,0 0.076,0.012 0.101,0.037c0.025,0.024 0.037,0.057 0.037,0.097c0,0.018 -0.005,0.053 -0.016,0.104l-0.061,0.293l-0.14,-0l0.062,-0.294c0.009,-0.044 0.014,-0.07 0.014,-0.079c0,-0.018 -0.005,-0.032 -0.016,-0.042c-0.011,-0.01 -0.025,-0.015 -0.044,-0.015c-0.021,0 -0.043,0.009 -0.068,0.026c-0.025,0.017 -0.045,0.04 -0.059,0.068c-0.01,0.02 -0.022,0.061 -0.035,0.124l-0.044,0.213l-0.14,-0l0.108,-0.519Z" style="fill:#fff;fill-rule:nonzero;stroke:#000;stroke-width:0.05px;"/></g><g transform="matrix(50,0,0,50,853.046427,930.544179)"><path d="M0.189,-0.716l0.14,0l-0.026,0.127l-0.14,0l0.026,-0.127Zm-0.041,0.197l0.14,0l-0.108,0.519l-0.14,-0l0.108,-0.519Z" style="fill:#fff;fill-rule:nonzero;stroke:#000;stroke-width:0.05px;"/></g><g transform="matrix(50,0,0,50,863.438029,930.544179)"><path d="M0.392,-0.195l0.136,0.022c-0.022,0.061 -0.056,0.107 -0.1,0.138c-0.044,0.032 -0.095,0.047 -0.153,0.047c-0.066,0 -0.118,-0.02 -0.157,-0.059c-0.039,-0.039 -0.058,-0.094 -0.058,-0.163c0,-0.056 0.012,-0.11 0.035,-0.16c0.023,-0.05 0.059,-0.09 0.106,-0.118c0.047,-0.029 0.099,-0.043 0.155,-0.043c0.061,0 0.11,0.016 0.146,0.048c0.036,0.032 0.057,0.074 0.062,0.126l-0.133,0.014c-0.003,-0.029 -0.012,-0.05 -0.027,-0.064c-0.014,-0.014 -0.033,-0.021 -0.057,-0.021c-0.027,0 -0.052,0.01 -0.076,0.03c-0.023,0.02 -0.041,0.05 -0.054,0.091c-0.013,0.04 -0.019,0.078 -0.019,0.113c0,0.031 0.007,0.054 0.022,0.071c0.015,0.017 0.034,0.025 0.056,0.025c0.022,0 0.044,-0.008 0.065,-0.024c0.021,-0.016 0.037,-0.041 0.049,-0.073Z" style="fill:#fff;fill-rule:nonzero;stroke:#000;stroke-width:0.05px;"/></g><g transform="matrix(50,0,0,50,887.745646,930.544179)"><path d="M0.191,-0l-0.147,-0l0.15,-0.716l0.318,0c0.055,0 0.097,0.006 0.128,0.017c0.03,0.011 0.055,0.032 0.074,0.062c0.019,0.03 0.028,0.066 0.028,0.109c0,0.061 -0.018,0.111 -0.055,0.151c-0.036,0.04 -0.092,0.064 -0.166,0.073c0.019,0.017 0.037,0.039 0.053,0.067c0.033,0.056 0.069,0.135 0.11,0.237l-0.158,-0c-0.013,-0.04 -0.038,-0.103 -0.075,-0.189c-0.02,-0.046 -0.042,-0.077 -0.064,-0.093c-0.014,-0.009 -0.038,-0.014 -0.073,-0.014l-0.06,0l-0.062,0.296Zm0.084,-0.404l0.078,0c0.079,0 0.132,-0.005 0.157,-0.014c0.026,-0.009 0.046,-0.024 0.061,-0.044c0.015,-0.02 0.022,-0.041 0.022,-0.063c0,-0.026 -0.011,-0.046 -0.032,-0.059c-0.013,-0.008 -0.041,-0.012 -0.084,-0.012l-0.162,0l-0.04,0.192Z" style="fill:#fff;fill-rule:nonzero;stroke:#000;stroke-width:0.05px;"/></g><g transform="matrix(50,0,0,50,920.354044,930.544179)"><path d="M0.545,-0.216l-0.352,0c-0,0.006 -0,0.01 -0,0.013c0,0.035 0.01,0.062 0.03,0.083c0.02,0.021 0.044,0.032 0.072,0.032c0.047,0 0.083,-0.024 0.109,-0.072l0.125,0.021c-0.024,0.05 -0.057,0.088 -0.098,0.114c-0.041,0.025 -0.087,0.038 -0.137,0.038c-0.07,0 -0.126,-0.022 -0.17,-0.066c-0.044,-0.044 -0.065,-0.102 -0.065,-0.175c0,-0.071 0.02,-0.134 0.059,-0.189c0.054,-0.075 0.13,-0.112 0.23,-0.112c0.063,0 0.114,0.02 0.151,0.059c0.037,0.039 0.056,0.094 0.056,0.165c0,0.034 -0.003,0.064 -0.01,0.091Zm-0.118,-0.085c0,-0.006 0,-0.011 0,-0.014c0,-0.038 -0.009,-0.067 -0.026,-0.086c-0.017,-0.019 -0.04,-0.029 -0.069,-0.029c-0.029,0 -0.055,0.011 -0.078,0.033c-0.023,0.022 -0.038,0.054 -0.047,0.097l0.219,0Z" style="fill:#fff;fill-rule:nonzero;stroke:#000;stroke-width:0.05px;"/></g><g transform="matrix(50,0,0,50,944.661662,930.544179)"><path d="M0.519,-0l-0.133,-0l0.012,-0.056c-0.025,0.024 -0.05,0.042 -0.075,0.052c-0.025,0.011 -0.052,0.016 -0.083,0.016c-0.054,0 -0.097,-0.018 -0.131,-0.055c-0.033,-0.037 -0.05,-0.091 -0.05,-0.162c0,-0.083 0.023,-0.158 0.07,-0.225c0.047,-0.067 0.109,-0.101 0.186,-0.101c0.07,0 0.122,0.028 0.157,0.083l0.056,-0.268l0.14,0l-0.149,0.716Zm-0.324,-0.211c0,0.037 0.009,0.066 0.028,0.087c0.019,0.021 0.042,0.031 0.069,0.031c0.025,0 0.049,-0.009 0.071,-0.026c0.022,-0.017 0.04,-0.044 0.053,-0.08c0.013,-0.036 0.02,-0.07 0.02,-0.103c0,-0.037 -0.01,-0.068 -0.03,-0.091c-0.02,-0.023 -0.043,-0.035 -0.07,-0.035c-0.041,0 -0.075,0.023 -0.101,0.068c-0.026,0.046 -0.04,0.095 -0.04,0.148Z" style="fill:#fff;fill-rule:nonzero;stroke:#000;stroke-width:0.05px;"/></g></g></g><defs><radialGradient id="_Radial1" cx="0" cy="0" r="1" gradientUnits="userSpaceOnUse" gradientTransform="matrix(9.502159,-10.786374,10.786374,9.502159,25.203522,25.203522)"><stop offset="0" style="stop-color:#9b0028;stop-opacity:1"/><stop offset="0.46" style="stop-color:#b70130;stop-opacity:1"/><stop offset="1" style="stop-color:#ff0244;stop-opacity:1"/></radialGradient></defs></svg>
